<?xml version="1.0" standalone="no"?>
<!DOCTYPE svg PUBLIC "-//W3C//DTD SVG 20010904//EN"
 "http://www.w3.org/TR/2001/REC-SVG-20010904/DTD/svg10.dtd">
<svg version="1.0" xmlns="http://www.w3.org/2000/svg"
 width="500.000000pt" height="500.000000pt" viewBox="0 0 500.000000 500.000000"
 preserveAspectRatio="xMidYMid meet">
<metadata>
Created by potrace 1.14, written by Peter Selinger 2001-2017
</metadata>
<g transform="translate(0.000000,500.000000) scale(0.100000,-0.100000)"
fill="#000000" stroke="none">
<path d="M1433 3563 l-52 -4 -3 -245 c-2 -135 0 -253 3 -263 11 -29 1528
-1538 1564 -1555 29 -14 70 -16 277 -14 l243 3 3 225 c2 146 -1 239 -8 264
-10 32 -139 165 -774 797 -419 418 -773 767 -786 776 -19 13 -57 17 -219 18
-108 2 -219 1 -248 -2z"/>
<path d="M2960 3559 c-39 -12 -260 -228 -260 -255 0 -25 486 -504 510 -504 16
0 193 172 231 224 l29 39 0 243 c0 134 -3 245 -7 247 -18 11 -470 16 -503 6z"/>
<path d="M1539 2163 c-41 -43 -94 -99 -117 -125 l-42 -48 0 -255 0 -255 243 0
c214 0 247 3 282 19 22 10 84 63 138 119 92 94 98 102 86 124 -18 34 -484 498
-501 498 -7 0 -47 -35 -89 -77z"/>
</g>
</svg>
