<?xml version="1.0" standalone="no"?>
<!DOCTYPE svg PUBLIC "-//W3C//DTD SVG 20010904//EN"
 "http://www.w3.org/TR/2001/REC-SVG-20010904/DTD/svg10.dtd">
<svg version="1.0" xmlns="http://www.w3.org/2000/svg"
 width="384.000000pt" height="384.000000pt" viewBox="0 0 384.000000 384.000000"
 preserveAspectRatio="xMidYMid meet">
<metadata>
Created by potrace 1.14, written by Peter Selinger 2001-2017
</metadata>
<g transform="translate(0.000000,384.000000) scale(0.100000,-0.100000)"
fill="#000000" stroke="none">
<path d="M1067 2733 c-4 -3 -7 -95 -7 -202 l0 -196 593 -592 c420 -420 600
-594 621 -599 16 -4 109 -7 205 -8 l176 -1 5 50 c3 28 4 117 2 200 l-3 150
-572 573 c-315 316 -590 587 -611 603 l-39 29 -182 0 c-100 0 -185 -3 -188 -7z"/>
<path d="M2240 2713 c-25 -16 -73 -62 -108 -102 l-62 -72 20 -29 c22 -31 342
-340 367 -354 12 -6 38 15 112 88 l96 96 -3 192 c-2 106 -5 194 -6 195 -2 2
-86 6 -187 9 l-184 6 -45 -29z"/>
<path d="M1152 1626 l-92 -93 0 -197 0 -196 201 0 202 0 88 87 c49 48 89 93
89 101 0 16 -369 392 -386 392 -5 0 -52 -42 -102 -94z"/>
</g>
</svg>
